# AST/ASF file generated using VICON BodyLanguage
# -----------------------------------------------
:version 1.10
:name VICON
:units
  mass 1.0
  length 0.45
  angle deg
:documentation
   .ast/.asf automatically generated from VICON data using
   VICON BodyBuilder and BodyLanguage model FoxedUp or BRILLIANT.MOD
:root
   order TX TY TZ RX RY RZ
   axis XYZ
   position 0 0 0  
   orientation 0 -0 0 
:bonedata
  begin
     id 1 
     name lhipjoint
     direction 0.515797 -0.759363 0.396637 
     length 2.47888 
     axis 0 -0 0  XYZ
  end
  begin
     id 2 
     name lfemur
     direction 0.34202 -0.939693 0  
     length 6.81885  
     axis 0 -0 20  XYZ
    dof rx ry rz
    limits (-160.0 20.0)
           (-70.0 70.0)
           (-60.0 70.0)
  end
  begin
     id 3 
     name ltibia
     direction 0.342037 -0.939687 0   
     length 7.89258   
     axis 0 -0 20   XYZ
    dof rx
    limits (-10.0 170.0)
  end
  begin
     id 4 
     name lfoot
     direction 0.173497 -0.476678 0.861787   
     length 2.51543   
     axis -90 -1.13533e-015 20   XYZ
    dof rx rz
    limits (-45.0 90.0)
           (-70.0 20.0)
  end
  begin
     id 5 
     name ltoes
     direction 1.53564e-011 -4.21897e-011 1   
     length 1.21388   
     axis -90 -1.13533e-015 20   XYZ
    dof rx
    limits (-90.0 20.0)
  end
  begin
     id 6 
     name rhipjoint
     direction -0.489454 -0.772941 0.403729   
     length 2.43534  
     axis 0 -0 0  XYZ 
  end
  begin
     id 7 
     name rfemur
     direction -0.34202 -0.939693 0   
     length 7.10357   
     axis 0 -0 -20   XYZ
    dof rx ry rz
    limits (-160.0 20.0)
           (-70.0 70.0)
           (-70.0 60.0)
  end
  begin
     id 8 
     name rtibia
     direction -0.34202 -0.939693 0   
     length 9.16127   
     axis 0 -0 -20   XYZ
    dof rx
    limits (-10.0 170.0)
 end
 begin
     id 9 
     name rfoot
     direction -0.270974 -0.748671 0.605033   
     length 1.74894  
     axis -90 1.13533e-015 -20   XYZ
    dof rx rz
    limits (-45.0 90.0)
           (-20.0 70.0)
  end
  begin
     id 10 
     name rtoes
     direction -1.53557e-011 -4.21759e-011 1   
     length 0.787585   
     axis -90 1.13533e-015 -20   XYZ
    dof rx
    limits (-90.0 20.0)
  end
  begin
     id 11 
     name lowerback
     direction -0.0140249 0.999561 0.0260968   
     length 2.16963   
     axis 0 -0 0   XYZ
    dof rx ry rz
    limits (-20.0 45.0)
           (-30.0 30.0)
           (-30.0 30.0)
  end
  begin
     id 12 
     name upperback
     direction 0.00860018 0.999959 -0.002711   
     length 2.1726   
     axis 0 -0 0   XYZ
    dof rx ry rz
    limits (-20.0 45.0)
           (-30.0 30.0)
           (-30.0 30.0)
  end
  begin
     id 13 
     name thorax
     direction 0.015211 0.999782 -0.0143191   
     length 2.17061   
     axis 0 -0 0   XYZ
    dof rx ry rz
    limits (-20.0 45.0)
           (-30.0 30.0)
           (-30.0 30.0)
  end
  begin
     id 14 
     name lowerneck
     direction -0.0140143 0.999447 0.030145   
     length 2.26749   
     axis 0 -0 0   XYZ
    dof rx ry rz
    limits (-20.0 45.0)
           (-30.0 30.0)
           (-30.0 30.0)
  end
  begin
     id 15 
     name upperneck
     direction 0.118062 0.961438 -0.248392   
     length 2.22728   
     axis 0 -0 0   XYZ
    dof rx ry rz
    limits (-20.0 45.0)
           (-30.0 30.0)
           (-30.0 30.0)
  end
  begin
     id 16
     name head
     direction 0.0431885 0.9954 -0.085514  
     length 2.28786  
     axis 0 -0 0   XYZ
    dof rx ry rz
    limits (-20.0 45.0)
           (-30.0 30.0)
           (-30.0 30.0)
  end
  begin
     id 17 
     name lclavicle
     direction 0.912126 0.409548 0.0172323  
     length 4.31571  
     axis 0 -0 0   XYZ
    dof ry rz
    limits (-20.0 10.0)
           (0.0 20.0)
  end
  begin
     id 18 
     name lhumerus
     direction 1 -4.48977e-011 1.93091e-027   
     length 5.13658   
     axis 180 -30 -90   XYZ
    dof rx ry rz
    limits (-60.0 90.0)
           (-90.0 90.0)
           (-90.0 90.0)
  end
  begin
     id 19
     name lradius
     direction 1 -4.48916e-011 6.84018e-027   
     length 3.22473   
     axis 180 -30 -90   XYZ
    dof rx
    limits (-10.0 170.0)
  end
  begin
     id 20
     name lwrist
     direction 1 -4.48987e-011 7.01981e-027   
     length 1.61236   
     axis -4.37994e-015 90 90   XYZ
    dof ry
    limits (-180.0 0.0)
 end
  begin
     id 21 
     name lhand
     direction 1 -4.49037e-011 1.40335e-026   
     length 0.936406   
     axis -8.96029e-015 90 90   XYZ
    dof rx rz
    limits (-90.0 90.0)
           (-45.0 45.0)
  end
  begin
     id 22 
     name lfingers
     direction 1 -4.48886e-011 2.8104e-026   
     length 0.754955   
     axis -1.79203e-014 90 90   XYZ
    dof rx
    limits (0.0 90.0)
  end
  begin
     id 23
     name lthumb
     direction 0.707107 -6.34937e-011 0.707107   
     length 1.08397   
     axis -90 45 -4.48555e-014   XYZ
    dof rx rz
    limits (-45.0 45.0)
           (-45.0 45.0)
  end
  begin
     id 24 
     name rclavicle
     direction -0.947962 0.317997 0.0156638   
     length 4.86918  
     axis 0 -0 0   XYZ 
    dof ry rz
    limits (-10.0 20.0)
           (-20.0 0.0)
  end
  begin
     id 25 
     name rhumerus
     direction -1 -4.48951e-011 2.80534e-018  
     length 5.60911   
     axis 180 30 90   XYZ
    dof rx ry rz
    limits (-90.0 60.0)
           (-90.0 90.0)
           (-90.0 90.0)
  end
  begin
     id 26 
     name rradius
     direction -1 -4.4898e-011 2.11315e-027   
     length 3.38704   
     axis 180 30 90   XYZ
    dof rx
    limits (-10.0 170.0)
  end
  begin
     id 27 
     name rwrist
     direction -1 -4.48933e-011 7.02314e-027   
     length 1.69352   
     axis -4.37994e-015 -90 -90   XYZ
    dof ry
    limits (-180.0 0.0)
  end
  begin
     id 28
     name rhand
     direction -1 -4.48937e-011 1.40458e-026   
     length 0.755878   
     axis -8.96029e-015 -90 -90   XYZ
    dof rx rz
    limits (-90.0 90.0)
           (-45.0 45.0)
  end
  begin
     id 29
     name rfingers
     direction -1 -4.4901e-011 2.80737e-026   
     length 0.609409   
     axis -1.79203e-014 -90 -90   XYZ
    dof rx
    limits (0.0 90.0)
  end
  begin
     id 30
     name rthumb
     direction -0.707107 -6.34968e-011 0.707107   
     length 0.874992   
     axis -90 -45 4.48555e-014   XYZ
    dof rx rz
    limits (-45.0 45.0)
           (-45.0 45.0)
  end
:hierarchy
  begin
    root lhipjoint rhipjoint lowerback
    lhipjoint lfemur
    lfemur ltibia
    ltibia lfoot
    lfoot ltoes
    rhipjoint rfemur
    rfemur rtibia
    rtibia rfoot
    rfoot rtoes
    lowerback upperback
    upperback thorax
    thorax lowerneck lclavicle rclavicle
    lowerneck upperneck
    upperneck head
    lclavicle lhumerus
    lhumerus lradius
    lradius lwrist
    lwrist lhand lthumb
    lhand lfingers
    rclavicle rhumerus
    rhumerus rradius
    rradius rwrist
    rwrist rhand rthumb
    rhand rfingers
  end

#!OML:ASF C:\ViconDB\ViconDB\414\Spring2016\041811\Spring2016.ASF
:FULLY-SPECIFIED
:DEGREES
78
root 8.75979 18.1975 3.85436 -178.954 -2.3185 -179.327
lowerback 4.39026 1.28756 -3.80869
upperback 1.62962 1.49249 0.235563
thorax -0.889609 0.710007 2.30123
lowerneck -9.08502 -4.92804 -10.6165
upperneck 11.5357 -8.18751 16.9673
head 6.12454 -3.63073 6.5045
rclavicle -7.00716e-015 1.98785e-016
rhumerus -40.8665 -22.1099 -78.2781
rradius 35.7089
rwrist 44.3827
rhand -32.9503 -13.1796
rfingers 7.12502
rthumb -6.16625 -43.0699
lclavicle -7.00716e-015 1.98785e-016
lhumerus -40.3434 -10.0357 94.2977
lradius 29.1224
lwrist -31.0509
lhand -25.3882 14.3855
lfingers 7.12502
lthumb 1.13661 44.3622
rfemur -20.305 -12.988 12.3506
rtibia 51.7308
rfoot -164.029 -1.66516
rtoes -6.74091
lfemur -4.60052 -5.628 -17.6048
ltibia 24.2304
lfoot -24.2212 9.74766
ltoes -10.1584
79
root 8.73065 18.2064 3.82919 -179.011 -2.37471 -179.357
lowerback 4.59082 1.22026 -4.00759
upperback 1.77287 1.38024 0.312769
thorax -0.852983 0.646638 2.49635
lowerneck -9.21484 -4.90409 -10.6121
upperneck 11.2922 -8.07856 16.9178
head 6.05471 -3.57206 6.49273
rclavicle 9.7156e-015 -6.95746e-015
rhumerus -40.662 -22.699 -77.9546
rradius 35.7538
rwrist 44.9022
rhand -33.0024 -12.9059
rfingers 7.12502
rthumb -6.21652 -42.7946
lclavicle 9.7156e-015 -6.95746e-015
lhumerus -40.2533 -10.3421 94.5659
lradius 29.4862
lwrist -30.2402
lhand -25.195 14.1071
lfingers 7.12502
lthumb 1.32324 44.0827
rfemur -21.4842 -13.214 12.402
rtibia 53.2646
rfoot -163.964 -1.75047
rtoes -6.47402
lfemur -4.24888 -5.79534 -17.778
ltibia 23.8933
lfoot -24.3388 9.85433
ltoes -10.0349
80
root 8.70529 18.2099 3.80266 -179.004 -2.42586 -179.121
lowerback 4.71125 1.16069 -3.93787
upperback 1.86508 1.29681 0.433153
thorax -0.820568 0.600685 2.58483
lowerneck -9.31224 -4.87809 -10.5608
upperneck 11.157 -8.02877 16.9716
head 6.02387 -3.54054 6.50347
rclavicle 1.36167e-014 -6.16232e-015
rhumerus -40.438 -23.0962 -77.8593
rradius 35.955
rwrist 44.0181
rhand -32.6567 -13.0424
rfingers 7.12502
rthumb -5.88281 -42.9407
lclavicle 1.36167e-014 -6.16232e-015
lhumerus -40.211 -10.4477 94.7051
lradius 29.7882
lwrist -30.0531
lhand -25.2387 14.1215
lfingers 7.12502
lthumb 1.28106 44.0974
rfemur -22.6276 -13.4734 12.8223
rtibia 54.4771
rfoot -163.711 -1.33432
rtoes -6.76085
lfemur -4.00328 -5.93847 -17.624
ltibia 23.618
lfoot -24.339 9.94813
ltoes -10.3354
81
root 8.68089 18.2163 3.77039 -179.003 -2.53222 -178.883
lowerback 4.8838 1.07886 -3.80332
upperback 1.8954 1.18523 0.520109
thorax -0.876668 0.544525 2.60282
lowerneck -9.24019 -4.8362 -10.5606
upperneck 10.9349 -7.96277 17.0848
head 5.93836 -3.51137 6.54633
rclavicle 9.0944e-015 6.95746e-015
rhumerus -40.4853 -23.7097 -77.5946
rradius 35.9815
rwrist 44.2593
rhand -32.9122 -12.84
rfingers 7.12502
rthumb -6.12949 -42.7313
lclavicle 9.0944e-015 6.95746e-015
lhumerus -40.2047 -10.6277 94.8119
lradius 30.08
lwrist -29.6484
lhand -25.0938 14.0296
lfingers 7.12502
lthumb 1.42095 44.0046
rfemur -23.5947 -13.7844 13.2333
rtibia 55.3306
rfoot -163.476 -0.805791
rtoes -6.53491
lfemur -3.76097 -6.18944 -17.4814
ltibia 23.39
lfoot -24.4894 10.0745
ltoes -10.3886
82
root 8.65692 18.224 3.73381 -178.925 -2.63835 -178.693
lowerback 4.95248 1.01725 -3.73782
upperback 1.89762 1.10446 0.625986
thorax -0.907635 0.504569 2.67897
lowerneck -9.17615 -4.83291 -10.5413
upperneck 10.7877 -7.9492 17.1184
head 5.88076 -3.50833 6.55456
rclavicle -1.89839e-014 6.55989e-015
rhumerus -40.633 -24.2524 -77.2397
rradius 36.0729
rwrist 44.5315
rhand -33.0674 -12.8403
rfingers 7.12502
rthumb -6.27928 -42.7272
lclavicle -1.89839e-014 6.55989e-015
lhumerus -40.3192 -10.8491 95.0434
lradius 30.4865
lwrist -29.315
lhand -25.2345 13.7836
lfingers 7.12502
lthumb 1.28513 43.7595
rfemur -24.5894 -14.2261 13.7054
rtibia 55.8692
rfoot -163.066 -0.351173
rtoes -6.40146
lfemur -3.61142 -6.55641 -17.4107
ltibia 23.2189
lfoot -24.6797 10.3381
ltoes -10.4638
83
root 8.63939 18.2291 3.69295 -178.824 -2.76742 -178.516
lowerback 4.96889 0.928882 -3.66275
upperback 1.91066 0.989696 0.670198
thorax -0.894439 0.446607 2.68905
lowerneck -9.14668 -4.79061 -10.5402
upperneck 10.6366 -7.907 17.2927
head 5.83094 -3.48704 6.6156
rclavicle 1.63997e-015 8.94531e-015
rhumerus -40.7123 -24.7238 -77.0849
rradius 36.1571
rwrist 44.3925
rhand -33.2716 -13.1686
rfingers 7.12502
rthumb -6.47639 -43.0495
lclavicle 1.63997e-015 8.94531e-015
lhumerus -40.3169 -11.0596 95.1277
lradius 30.9497
lwrist -28.7269
lhand -25.1428 13.9767
lfingers 7.12502
lthumb 1.37362 43.952
rfemur -25.4998 -14.719 14.2511
rtibia 56.0638
rfoot -162.772 0.116036
rtoes -6.60044
lfemur -3.48079 -7.12683 -17.3527
ltibia 23.1045
lfoot -24.9952 10.7085
ltoes -10.3775
84
root 8.61947 18.2263 3.6489 -178.738 -2.88668 -178.26
lowerback 5.03591 0.807974 -3.52712
upperback 1.89217 0.833969 0.771283
thorax -0.939012 0.370253 2.72541
lowerneck -9.18922 -4.73026 -10.4957
upperneck 10.6541 -7.84238 17.3367
head 5.83431 -3.4518 6.62869
rclavicle -7.57867e-015 -8.15017e-015
rhumerus -40.8869 -25.1458 -76.953
rradius 36.277
rwrist 44.0797
rhand -33.3742 -13.1766
rfingers 7.12502
rthumb -6.57547 -43.0545
lclavicle -7.57867e-015 -8.15017e-015
lhumerus -40.2854 -10.8471 95.049
lradius 31.2286
lwrist -28.9165
lhand -25.1718 13.8214
lfingers 7.12502
lthumb 1.34568 43.7969
rfemur -26.3395 -15.255 14.94
rtibia 55.9511
rfoot -162.501 0.698167
rtoes -6.61091
lfemur -3.37476 -7.54961 -17.2379
ltibia 23.0265
lfoot -25.1738 11.1514
ltoes -10.7093
85
root 8.60119 18.23 3.59923 -178.612 -2.92515 -178.043
lowerback 5.00493 0.782156 -3.38005
upperback 1.89828 0.807907 0.780469
thorax -0.911826 0.35701 2.65401
lowerneck -9.28651 -4.75953 -10.2805
upperneck 10.643 -7.93388 17.4053
head 5.8571 -3.48594 6.60255
rclavicle -1.97294e-014 3.77691e-015
rhumerus -41.0481 -25.7219 -76.8173
rradius 36.3432
rwrist 43.7492
rhand -33.4787 -13.229
rfingers 7.12502
rthumb -6.6763 -43.1037
lclavicle -1.97294e-014 3.77691e-015
lhumerus -40.2583 -11.1605 95.1115
lradius 31.7398
lwrist -28.2401
lhand -25.1087 13.8846
lfingers 7.12502
lthumb 1.40657 43.8597
rfemur -27.0443 -15.6472 15.6343
rtibia 55.4667
rfoot -162.333 1.39356
rtoes -6.59251
lfemur -3.30204 -8.24934 -17.1566
ltibia 23.071
lfoot -25.6721 11.6571
ltoes -10.5056
86
root 8.58576 18.2322 3.55104 -178.482 -3.02404 -177.884
lowerback 5.05671 0.714441 -3.32693
upperback 1.85034 0.720656 0.84214
thorax -0.983941 0.316254 2.6922
lowerneck -9.2521 -4.74894 -10.2322
upperneck 10.5913 -7.93666 17.4583
head 5.83616 -3.48818 6.61129
rclavicle -1.40143e-014 -8.74653e-015
rhumerus -41.2187 -25.8451 -76.8876
rradius 36.7397
rwrist 41.8287
rhand -32.9928 -13.5262
rfingers 7.12502
rthumb -6.20729 -43.4152
lclavicle -1.40143e-014 -8.74653e-015
lhumerus -40.3426 -11.4536 95.252
lradius 32.2113
lwrist -27.8147
lhand -25.2388 14.0761
lfingers 7.12502
lthumb 1.28091 44.052
rfemur -27.6495 -15.9174 16.2707
rtibia 54.7163
rfoot -162.6 2.32698
rtoes -5.50343
lfemur -3.26552 -8.72265 -17.0962
ltibia 23.0996
lfoot -26.0203 11.98
ltoes -10.4621
87
root 8.57016 18.226 3.49674 -178.385 -3.06096 -177.579
lowerback 5.07493 0.67179 -3.15172
upperback 1.81026 0.674462 0.97157
thorax -1.03167 0.295273 2.72954
lowerneck -9.24001 -4.75996 -10.3943
upperneck 10.6181 -8.013 17.8014
head 5.87552 -3.52269 6.74828
rclavicle 3.97569e-015 -9.74045e-015
rhumerus -41.4677 -25.9412 -76.8007
rradius 36.8751
rwrist 40.8201
rhand -33.0921 -13.7888
rfingers 7.12502
rthumb -6.30316 -43.675
lclavicle 3.97569e-015 -9.74045e-015
lhumerus -40.2739 -11.2746 95.2526
lradius 32.4599
lwrist -27.9851
lhand -25.4102 13.9859
lfingers 7.12502
lthumb 1.11544 43.9627
rfemur -28.0625 -15.9906 17.0824
rtibia 53.643
rfoot -162.581 2.93342
rtoes -5.54807
lfemur -3.19409 -9.16641 -16.8936
ltibia 23.1867
lfoot -26.3978 12.3449
ltoes -10.5172
88
root 8.55508 18.2279 3.43968 -178.215 -3.05609 -177.462
lowerback 5.04709 0.656741 -3.17114
upperback 1.75139 0.657969 1.05182
thorax -1.07655 0.289806 2.82424
lowerneck -9.20905 -4.72792 -10.3279
upperneck 10.5915 -7.98709 17.8283
head 5.85656 -3.51065 6.7483
rclavicle 7.45443e-015 9.93923e-016
rhumerus -41.7841 -26.0906 -76.5961
rradius 36.9099
rwrist 40.5592
rhand -33.2063 -13.9131
rfingers 7.12502
rthumb -6.41342 -43.796
lclavicle 7.45443e-015 9.93923e-016
lhumerus -40.2709 -11.2977 95.3888
lradius 32.8853
lwrist -27.6875
lhand -25.4208 14.0544
lfingers 7.12502
lthumb 1.10512 44.0313
rfemur -28.5597 -15.9279 17.6726
rtibia 52.3606
rfoot -162.72 3.50811
rtoes -5.42327
lfemur -3.11571 -9.57704 -16.8954
ltibia 23.1547
lfoot -26.7141 12.7304
ltoes -10.502
89
root 8.54252 18.2237 3.38208 -178.049 -3.0418 -177.288
lowerback 5.05183 0.606076 -3.07783
upperback 1.68395 0.597853 1.08512
thorax -1.14364 0.263264 2.8094
lowerneck -9.24774 -4.68543 -10.2885
upperneck 10.606 -7.97234 17.9713
head 5.87065 -3.49846 6.79065
rclavicle 1.76918e-014 -5.76476e-015
rhumerus -42.0668 -26.1822 -76.5192
rradius 36.854
rwrist 40.4817
rhand -33.2266 -14.1124
rfingers 7.12502
rthumb -6.43302 -43.9947
lclavicle 1.76918e-014 -5.76476e-015
lhumerus -40.3473 -11.1743 95.3384
lradius 33.4635
lwrist -27.2185
lhand -25.5739 13.9418
lfingers 7.12502
lthumb 0.957259 43.9194
rfemur -28.9023 -15.6586 18.3197
rtibia 50.8366
rfoot -162.973 4.09858
rtoes -5.07751
lfemur -3.03253 -9.7779 -16.7818
ltibia 23.0858
lfoot -27.0113 12.9255
ltoes -10.3282
